<svg xmlns="http://www.w3.org/2000/svg" id="b" width="800" height="800" viewBox="0 0 48 48"><defs><style>.g{fill:none;stroke:#fff;stroke-linecap:round;stroke-linejoin:round;stroke-width:2px}</style></defs><path id="c" d="M40.5 5.5h-33a2 2 0 0 0-2 2v33a2 2 0 0 0 2 2h33a2 2 0 0 0 2-2v-33a2 2 0 0 0-2-2" class="g"/><path id="d" d="M20.373 11.5h16.502v5H20.373z" class="g"/><path id="e" d="M20.373 21.5h16.502v5H20.373z" class="g"/><path id="f" d="M20.373 31.5h16.502v5H20.373z" class="g"/><path d="M11.125 11.501h5v5h-5zM11.125 21.5h5v5h-5zM11.125 31.5h5v5h-5z" class="g"/></svg>