<svg xmlns="http://www.w3.org/2000/svg" xml:space="preserve" id="_x32_" width="800" height="800" version="1.1" viewBox="0 0 512 512"><style>.st0{fill:#fff}</style><path d="M222.537 232.693h49.21l-.469-12.424-19.929-1.29a1.19 1.19 0 0 1-.938-.782l-1.681-6.458a1.39 1.39 0 0 1 .156-1.212c.25-.351.657-.563 1.095-.563h18.951c-1.407-13.127-9.78-22.853-22.962-24.839-18.741-2.815-33.228 10.602-30.93 26.708.938 6.553 4.221 16.881 7.497 20.86m37.091-36.183-5.293-.344s-2.432-3.135-4.527-5.575c2.095 0 7.381 2.095 9.82 5.919M65.417 237.509c-28.796 0-52.142 23.346-52.142 52.149s23.346 52.149 52.142 52.149c28.804 0 52.149-23.346 52.149-52.149 0-28.802-23.345-52.149-52.149-52.149m0 79.647c-15.176 0-27.49-12.298-27.49-27.498 0-15.191 12.314-27.49 27.49-27.49 15.2 0 27.498 12.299 27.498 27.49 0 15.2-12.298 27.498-27.498 27.498" class="st0"/><path d="M65.417 281.121c-4.707 0-8.522 3.831-8.522 8.538 0 4.715 3.815 8.538 8.522 8.538 4.715 0 8.546-3.823 8.546-8.538 0-4.707-3.831-8.538-8.546-8.538M393.738 229.965c-38.874-5.817-78.622-9.453-110.967-11.72-2.291 10.148-9.75 19.264-19.186 19.264h-51.203v-67.31700000000001c-61.97 6.756-101.288 39.296-124.165 64.268 21.658 8.976 36.942 30.336 36.942 55.198 0 5.583-.79 10.977-2.228 16.122h214.946a59.7 59.7 0 0 1-2.228-16.122c-.002-32.383 25.908-58.818 58.089-59.693M65.417 229.926c1.9 0 3.768.102 5.614.266l10.508-14.496v-33.173H0v83.439l8.741 4.902c7.905-23.753 30.32-40.938 56.676-40.938M470.281 286.813v-9.476l18.021-9.476s3.331-11.04 3.331-18.624c-21.219-7.005-49.57-11.102-75.738-15.684 22.862 8.397 39.217 30.375 39.217 56.105 0 5.583-.79 10.977-2.236 16.122H512v-18.967z" class="st0"/><path d="M395.38 237.509c-28.796 0-52.15 23.346-52.15 52.149s23.354 52.149 52.15 52.149c28.804 0 52.149-23.346 52.149-52.149 0-28.802-23.345-52.149-52.149-52.149m0 79.647c-15.192 0-27.498-12.298-27.498-27.498 0-15.191 12.306-27.49 27.498-27.49 15.184 0 27.498 12.299 27.498 27.49 0 15.2-12.314 27.498-27.498 27.498" class="st0"/><path d="M395.38 281.121c-4.715 0-8.538 3.831-8.538 8.538a8.54 8.54 0 0 0 8.538 8.538c4.715 0 8.53-3.823 8.53-8.538 0-4.707-3.815-8.538-8.53-8.538" class="st0"/></svg>