<svg xmlns="http://www.w3.org/2000/svg" xml:space="preserve" width="800" height="800" fill="#fff" viewBox="0 0 462.9 462.9"><path d="M246.1 321.8h-29.2c-4.1 0-7.5 3.4-7.5 7.5s3.4 7.5 7.5 7.5h29.2c4.1 0 7.5-3.4 7.5-7.5s-3.4-7.5-7.5-7.5M330.9 321.8h-29.2c-4.1 0-7.5 3.4-7.5 7.5s3.4 7.5 7.5 7.5h29.2c4.2 0 7.5-3.4 7.5-7.5s-3.4-7.5-7.5-7.5M161.3 321.8h-29.2c-4.1 0-7.5 3.4-7.5 7.5s3.4 7.5 7.5 7.5h29.2c4.1 0 7.5-3.4 7.5-7.5s-3.4-7.5-7.5-7.5M56.8 248.4v-34c0-4.1-3.4-7.5-7.5-7.5s-7.5 3.4-7.5 7.5v34c0 4.1 3.4 7.5 7.5 7.5s7.5-3.4 7.5-7.5M406.2 214.4v34c0 4.1 3.4 7.5 7.5 7.5 4.2 0 7.5-3.4 7.5-7.5v-34c0-4.1-3.4-7.5-7.5-7.5s-7.5 3.4-7.5 7.5M330.9 126h-29.2c-4.1 0-7.5 3.4-7.5 7.5s3.4 7.5 7.5 7.5h29.2c4.2 0 7.5-3.4 7.5-7.5s-3.4-7.5-7.5-7.5M132.1 141h29.2c4.1 0 7.5-3.4 7.5-7.5s-3.4-7.5-7.5-7.5h-29.2c-4.1 0-7.5 3.4-7.5 7.5s3.4 7.5 7.5 7.5M87.1 310.1c-11.3-7.2-18.4-14.5-22.5-22.8-1.8-3.8-6.3-5.3-10-3.5-3.8 1.8-5.3 6.3-3.5 10 5.3 10.9 14.2 20.1 27.9 28.9 1.2.8 2.6 1.2 4 1.2 2.5 0 4.9-1.2 6.4-3.4 2.2-3.5 1.2-8.2-2.3-10.4M408.3 283.7c-3.7-1.8-8.2-.2-10 3.5-4.8 10.1-14 17.6-21.5 23.1-3.3 2.5-4 7.2-1.6 10.5 1.5 2 3.8 3.1 6.1 3.1 1.5 0 3.1-.5 4.3-1.6 8.9-6.5 19.9-15.6 26.2-28.6 1.8-3.7.2-8.2-3.5-10M54.3 177.5c1.1.6 2.4.9 3.6.9 2.6 0 5.1-1.4 6.6-3.8 4.9-8.8 13.4-17 22.1-21.5 3.6-1.9 5.1-6.4 3.2-10.1-1.9-3.6-6.4-5.1-10.1-3.2-11.4 5.8-22 16.1-28.3 27.5-2 3.6-.7 8.2 2.9 10.2M398.5 174.5c1.4 2.5 4 3.9 6.6 3.9q1.95 0 3.6-.9c3.6-2 4.9-6.6 2.9-10.2-5.6-10.1-13.2-21.3-27.3-27.7-3.7-1.7-8.2-.1-9.9 3.7-1.7 3.7-.1 8.2 3.7 9.9 10.1 4.6 15.7 12.9 20.4 21.3"/><path d="M342.8 87.9H120.2C53.9 87.9 0 143.1 0 211v42.2c0 32.8 12.5 63.5 35.1 86.4 22.6 22.8 52.8 35.4 85 35.4h222.7c32.2 0 62.4-12.6 85-35.4 22.7-22.9 35.1-53.5 35.1-86.4V211c.1-67.9-53.8-123.1-120.1-123.1m-103.8 15h26.1V126H239zm82.6 76.2c23.2 0 42.9 19.6 42.9 42.8v20.4c0 22.9-19.2 41.5-42.9 41.5H141.4c-23.6 0-42.9-18.6-42.9-41.5v-20.4c0-23.2 19.6-42.8 42.9-42.8zM239 141h26.1v23.1H239zm-41.1-38.1H224V126h-26.1zm0 38.1H224v23.1h-26.1zm250.4 112.2h-.3c0 59.9-46.2 106.7-105.2 106.7H120.2C61.2 359.9 15 313 15 253.2V211c0-59.6 47.2-108.1 105.2-108.1h62.7v61.2h-41.5c-15.4 0-29.9 6.1-40.9 17.2-10.9 11-16.9 25.4-16.9 40.6v20.4c0 31.1 26 56.5 57.9 56.5h180.3c31.9 0 57.9-25.3 57.9-56.5v-20.4c0-15.2-6-29.6-16.9-40.6-11-11.1-25.5-17.2-40.9-17.2h-41.5v-61.2h62.7c58 0 105.2 48.5 105.2 108.1z"/></svg>